<svg version="1.0" xmlns="http://www.w3.org/2000/svg" xmlns:xlink="http://www.w3.org/1999/xlink" width="100%" height="100%" viewBox="0 0 330 100" preserveAspectRatio="xMidYMid meet" color-interpolation-filters="sRGB" style="margin: auto;">
  <g fill="#ffffff" class="bordersvg b-d1" transform="translate(0, 10)">
    <polyline stroke="#ffffff" stroke-width="3" fill-opacity="0" fill="#020202" points="134.14480590820312,20 134.14480590820312,0 268.28961181640625,0 268.28961181640625,73.62760162353516 134.14480590820312,73.62760162353516 134.14480590820312,53.627601623535156"></polyline>
    <g transform="translate(0,20)">
      <g>
        <rect data-gra="graph-name-bg" stroke-width="2" class="i-icon-bg" x="0" y="0" width="270" height="34" fill-opacity="0"></rect>
      </g>
      <g transform="translate(10,3)">
        <g data-gra="path-name" fill-rule="" stroke="#ffffff">
          <g transform="scale(1.3800000000000003)">
            <g>
              <path d="M4.34-18.72L12.12-9.46 19.89-18.72 22.78-18.72 22.78 0 20.67 0 20.67-16.33 12.12-6.16 3.56-16.33 3.56 0 1.46 0 1.46-18.72 4.34-18.72ZM25.48-15.08L37.67-15.08Q39-15.08 39.92-14.16 40.85-13.23 40.85-11.93L40.85-11.93 40.85 0 28.63 0Q27.33 0 26.4-0.92 25.48-1.85 25.48-3.15L25.48-3.15 25.48-8.61 38.69-8.61 38.69-11.93Q38.69-12.35 38.39-12.65 38.09-12.95 37.67-12.95L37.67-12.95 25.48-12.95 25.48-15.08ZM28.63-2.13L38.69-2.13 38.69-6.47 27.61-6.47 27.61-3.15Q27.61-2.73 27.91-2.43 28.21-2.13 28.63-2.13L28.63-2.13ZM43.19-15.08L55.41-15.08Q56.71-15.08 57.63-14.16 58.55-13.23 58.55-11.93L58.55-11.93 58.55 0 56.42 0 56.42-11.93Q56.42-12.35 56.12-12.65 55.82-12.95 55.41-12.95L55.41-12.95 46.36-12.95Q45.94-12.95 45.63-12.65 45.32-12.35 45.32-11.93L45.32-11.93 45.32 0 43.19 0 43.19-15.08ZM69.91-15.08L69.91-12.95 63.39-12.95 63.39-3.15Q63.39-2.73 63.69-2.43 63.99-2.13 64.4-2.13L64.4-2.13 69.91-2.13 69.91 0 64.4 0Q63.08 0 62.17-0.92 61.26-1.85 61.26-3.15L61.26-3.15 61.26-20.02 63.39-20.02 63.39-15.08 69.91-15.08ZM75.01-15.08L84.06-15.08Q85.38-15.08 86.31-14.16 87.23-13.23 87.23-11.93L87.23-11.93 87.23-6.47 74-6.47 74-3.15Q74-2.73 74.3-2.43 74.59-2.13 75.01-2.13L75.01-2.13 87.23-2.13 87.23 0 75.01 0Q73.71 0 72.79-0.92 71.86-1.85 71.86-3.15L71.86-3.15 71.86-11.93Q71.86-13.23 72.79-14.16 73.71-15.08 75.01-15.08L75.01-15.08ZM74-11.93L74-8.61 85.07-8.61 85.07-11.93Q85.07-12.35 84.77-12.65 84.47-12.95 84.06-12.95L84.06-12.95 75.01-12.95Q74.59-12.95 74.3-12.65 74-12.35 74-11.93L74-11.93ZM89.93-15.08L102.15-15.08Q103.45-15.08 104.38-14.16 105.3-13.23 105.3-11.93L105.3-11.93 105.3 0 103.17 0 103.17-11.93Q103.17-12.35 102.87-12.65 102.57-12.95 102.15-12.95L102.15-12.95 93.11-12.95Q92.69-12.95 92.38-12.65 92.07-12.35 92.07-11.93L92.07-11.93 92.07 0 89.93 0 89.93-15.08ZM107.98-15.08L120.17-15.08Q121.5-15.08 122.42-14.16 123.34-13.23 123.34-11.93L123.34-11.93 123.34 0 111.12 0Q109.82 0 108.9-0.92 107.98-1.85 107.98-3.15L107.98-3.15 107.98-8.61 121.19-8.61 121.19-11.93Q121.19-12.35 120.89-12.65 120.59-12.95 120.17-12.95L120.17-12.95 107.98-12.95 107.98-15.08ZM111.12-2.13L121.19-2.13 121.19-6.47 110.11-6.47 110.11-3.15Q110.11-2.73 110.41-2.43 110.71-2.13 111.12-2.13L111.12-2.13ZM128.15 0L126.02 0 126.02-15.08 128.15-15.08 128.15 0ZM126.02-17.89L126.02-20.02 128.15-20.02 128.15-17.89 126.02-17.89ZM131.09-15.08L143.31-15.08Q144.61-15.08 145.54-14.16 146.46-13.23 146.46-11.93L146.46-11.93 146.46 0 144.33 0 144.33-11.93Q144.33-12.35 144.03-12.65 143.73-12.95 143.31-12.95L143.31-12.95 134.26-12.95Q133.85-12.95 133.54-12.65 133.22-12.35 133.22-11.93L133.22-11.93 133.22 0 131.09 0 131.09-15.08ZM151.74-2.13L151.74-2.13 163.96-2.13 163.96 0 151.74 0Q150.44 0 149.51-0.92 148.59-1.85 148.59-3.15L148.59-3.15 148.59-11.93Q148.59-13.23 149.51-14.16 150.44-15.08 151.74-15.08L151.74-15.08 163.9-15.08 163.9-12.95 151.74-12.95Q151.32-12.95 151.02-12.65 150.72-12.35 150.72-11.93L150.72-11.93 150.72-3.15Q150.72-2.73 151.02-2.43 151.32-2.13 151.74-2.13ZM169.16-15.08L178.2-15.08Q179.53-15.08 180.45-14.16 181.38-13.23 181.38-11.93L181.38-11.93 181.38-6.47 168.14-6.47 168.14-3.15Q168.14-2.73 168.44-2.43 168.74-2.13 169.16-2.13L169.16-2.13 181.38-2.13 181.38 0 169.16 0Q167.86 0 166.93-0.92 166.01-1.85 166.01-3.15L166.01-3.15 166.01-11.93Q166.01-13.23 166.93-14.16 167.86-15.08 169.16-15.08L169.16-15.08ZM168.14-11.93L168.14-8.61 179.22-8.61 179.22-11.93Q179.22-12.35 178.92-12.65 178.62-12.95 178.2-12.95L178.2-12.95 169.16-12.95Q168.74-12.95 168.44-12.65 168.14-12.35 168.14-11.93L168.14-11.93Z" transform="translate(-1.4600000381469727, 20.020000457763672)" stroke-width="0.2" stroke-linejoin="round"></path>
            </g>
          </g>
        </g>
      </g>
    </g>
  </g>
  <defs v-gra="od"></defs>
</svg>